PathFileType	4	(X/Y/Z)	/Users/visionmauri/Downloads/pro-gait-dataset/4_0_1_f_1_Sports2D/4_0_1_f_1_Sports2D_px_person00.trc
DataRate	CameraRate	NumFrames	NumMarkers	Units	OrigDataRate	OrigDataStartFrame	OrigNumFrames
30.0	30.0	4	22	m	30.0	327	654
Frame#	Time	Hip			RHip			RKnee			RAnkle			RBigToe			RSmallToe			RHeel			LHip			LKnee			LAnkle			LBigToe			LSmallToe			LHeel			Neck			Head			Nose			RShoulder			RElbow			RWrist			LShoulder			LElbow			LWrist			
		X1	Y1	Z1	X2	Y2	Z2	X3	Y3	Z3	X4	Y4	Z4	X5	Y5	Z5	X6	Y6	Z6	X7	Y7	Z7	X8	Y8	Z8	X9	Y9	Z9	X10	Y10	Z10	X11	Y11	Z11	X12	Y12	Z12	X13	Y13	Z13	X14	Y14	Z14	X15	Y15	Z15	X16	Y16	Z16	X17	Y17	Z17	X18	Y18	Z18	X19	Y19	Z19	X20	Y20	Z20	X21	Y21	Z21	X22	Y22	Z22
327	10.916692189892801	521.4272948879949	849.3103281652459	0.0	511.9371046082352	849.2371393043653	0.0	516.8362312702183	891.1658643321352	0.0	516.8211916697863	935.0108746642821	0.0	531.4376721792501	946.5486410060681	0.0	527.6046655803516	947.2207261523356	0.0	513.2065708196673	942.0600932170809	0.0	531.156643717505	849.9934157201957	0.0	528.4192119865094	892.561949380304	0.0	520.8120239597697	935.0941624205418	0.0	535.1769440865779	946.7157842617244	0.0	533.3630110715536	945.0826229575318	0.0	515.7766184344472	942.6108827749044	0.0	526.4929445814886	788.6093383112716	0.0	536.8127294572936	761.9071187335334	0.0	535.1468193644724	777.1161873633595	0.0	512.9084627653003	793.2081754272883	0.0	499.13219286186956	820.8574067019127	0.0	505.65028524605407	848.8122139533134	0.0	536.9985001358225	798.3417115757079	0.0	538.8944640285732	827.7577063636237	0.0	543.3566066830111	852.7799036633797	0.0
328	10.950076569678407	521.3551958821434	848.6204384157705	0.0	511.08485288124405	847.8773735434686	0.0	516.8249666571355	891.0155236942876	0.0	518.1164169821984	934.767031804707	0.0	534.4401413023662	945.5206777024462	0.0	530.0479277182599	946.285194937993	0.0	515.271410638377	941.9536074700958	0.0	531.2013120708641	848.9815292152723	0.0	528.3631846669855	892.3008833728546	0.0	519.6246732354379	935.1375859196456	0.0	533.608279383707	946.2511170618909	0.0	532.0430893243526	944.7043634212666	0.0	513.1650519579595	942.9544366788564	0.0	527.0271760323742	788.0774456701665	0.0	536.435884673723	761.5930651842176	0.0	535.4490572701852	776.5776485420914	0.0	512.8425487764054	793.1032355206767	0.0	498.450139778647	820.7319919553656	0.0	504.72910296646995	848.7187379331035	0.0	538.6741228577268	797.9558545807928	0.0	540.5793561011872	827.6709766090272	0.0	545.0434718948378	852.726905471993	0.0
329	10.983460949464012	521.3144033763208	848.1436736799018	0.0	510.68518558693216	847.0816499881831	0.0	516.7350822738312	891.1803715767786	0.0	519.1285641287327	934.6935098320749	0.0	535.8604731594487	945.3038144065443	0.0	531.5591020985379	945.785365040639	0.0	517.2114343802468	941.730283031079	0.0	531.2526337548392	848.3533282545202	0.0	528.2409504339817	892.1893321638676	0.0	518.6098190660776	935.1887999800801	0.0	531.8068881151798	945.916436398642	0.0	531.3224073225006	944.3323086976211	0.0	511.11734953943824	943.2401095733226	0.0	527.6275061650086	787.6566545386385	0.0	536.0881782886282	761.4708446272862	0.0	535.4222955656038	776.3021784340203	0.0	512.6686903679259	793.0372569677036	0.0	497.7173704121837	820.819176178211	0.0	503.85900373889586	848.9470845476593	0.0	540.1718964838202	797.8514740598642	0.0	542.2885231658256	827.6351237754168	0.0	546.5914536362728	852.5800808000641	0.0
330	11.016845329249616	521.2623776786098	847.8076557953102	0.0	510.4924236734078	846.7390159718668	0.0	516.4123389983489	891.2965092905539	0.0	519.2435295608086	934.3761916451693	0.0	535.5108454010319	945.3608432027651	0.0	531.865628756661	945.6237666233261	0.0	517.8657553637815	941.4254895394743	0.0	531.2794876961701	848.0905232714254	0.0	528.0689734990937	892.2073800580795	0.0	518.1905545310702	935.1873924739931	0.0	530.6788397113265	945.8676223959612	0.0	529.99567711154	944.1875455524972	0.0	510.4873570820935	943.2370590863578	0.0	528.196848256661	787.521044598703	0.0	535.9284694592563	761.5201262128307	0.0	535.2502590280353	776.2662488237543	0.0	512.5262466264985	793.0219430547277	0.0	496.87696318999997	820.936918325445	0.0	502.70870445922526	848.9881816077595	0.0	541.2526552448494	797.8567126859513	0.0	543.8125042296507	827.54125763714	0.0	547.910601829041	852.5020485641306	0.0
